<svg width="207" height="55" viewBox="0 0 207 55" fill="none" xmlns="http://www.w3.org/2000/svg">
<path d="M14.9852 5.92079V47.8438H3.33005V5.92079H14.9852ZM46.0628 5.92079V15.1974H34.8833V47.8438H23.2281V15.1974H12.1676V5.92079H46.0628ZM82.0699 47.8438H70.4147L54.8943 24.4145V47.8438H43.2391V5.92079H54.8943L70.4147 29.6474V5.92079H82.0699V47.8438ZM113.149 5.92079V15.1974H101.97V47.8438H90.3146V15.1974H79.2541V5.92079H113.149Z" fill="white"/>
<path d="M145.322 7.54509V25.5H143.5V11.1621L137.099 25.5H135.772L129.37 11.2141V25.5H127.549V7.54509H129.474L136.422 23.106L143.37 7.54509H145.322ZM149.193 8.79413V15.5858H156.089V17.095H149.193V23.9907H156.87V25.5H147.372V7.28487H156.87V8.79413H149.193ZM163.764 7.31089C165.776 7.31089 167.502 7.6752 168.942 8.4038C170.382 9.13241 171.483 10.1819 172.247 11.5524C173.01 12.9229 173.392 14.5536 173.392 16.4445C173.392 18.318 173.01 19.94 172.247 21.3105C171.483 22.6636 170.382 23.7045 168.942 24.4331C167.502 25.1444 165.776 25.5 163.764 25.5H158.377V7.31089H163.764ZM163.764 23.9907C166.297 23.9907 168.222 23.3315 169.541 22.0131C170.876 20.6773 171.544 18.8211 171.544 16.4445C171.544 14.0505 170.876 12.1856 169.541 10.8498C168.222 9.49671 166.297 8.82015 163.764 8.82015H160.199V23.9907H163.764ZM176.49 7.31089V25.5H174.668V7.31089H176.49ZM189.072 21.1804H180.797L179.209 25.5H177.284L183.919 7.54509H185.975L192.585 25.5H190.659L189.072 21.1804ZM188.525 19.6712L184.934 9.83499L181.343 19.6712H188.525ZM141.861 34.6193C141.34 33.4223 140.542 32.4855 139.467 31.809C138.408 31.1151 137.159 30.7681 135.72 30.7681C134.366 30.7681 133.152 31.0804 132.077 31.7049C131.001 32.3294 130.151 33.2228 129.526 34.3851C128.902 35.5301 128.59 36.8658 128.59 38.3924C128.59 39.919 128.902 41.2635 129.526 42.4258C130.151 43.5881 131.001 44.4815 132.077 45.106C133.152 45.7305 134.366 46.0428 135.72 46.0428C136.986 46.0428 138.122 45.7739 139.128 45.2361C140.152 44.681 140.967 43.9003 141.574 42.8942C142.199 41.8707 142.555 40.6823 142.641 39.3292H134.991V37.846H144.567V39.1731C144.48 40.7691 144.046 42.2176 143.266 43.5187C142.485 44.8024 141.436 45.8173 140.117 46.5632C138.816 47.3092 137.35 47.6822 135.72 47.6822C134.037 47.6822 132.51 47.2918 131.14 46.5112C129.769 45.7132 128.685 44.6116 127.887 43.2064C127.106 41.7839 126.716 40.1793 126.716 38.3924C126.716 36.6056 127.106 35.0096 127.887 33.6045C128.685 32.1819 129.769 31.0804 131.14 30.2997C132.51 29.5017 134.037 29.1027 135.72 29.1027C137.663 29.1027 139.363 29.5885 140.82 30.5599C142.277 31.5314 143.335 32.8845 143.994 34.6193H141.861ZM155.502 47.5L151 39.9017H147.643V47.5H145.822V29.3109H151.286C153.316 29.3109 154.851 29.7966 155.892 30.7681C156.95 31.7396 157.48 33.0146 157.48 34.5933C157.48 35.9117 157.098 37.0393 156.335 37.9761C155.589 38.8955 154.478 39.494 153.004 39.7716L157.688 47.5H155.502ZM147.643 38.4185H151.312C152.735 38.4185 153.802 38.0715 154.513 37.3776C155.242 36.6837 155.606 35.7556 155.606 34.5933C155.606 33.3963 155.259 32.4769 154.565 31.835C153.871 31.1758 152.778 30.8462 151.286 30.8462H147.643V38.4185ZM167.183 47.6822C165.501 47.6822 163.974 47.2918 162.604 46.5112C161.233 45.7132 160.149 44.6116 159.351 43.2064C158.57 41.7839 158.18 40.1793 158.18 38.3924C158.18 36.6056 158.57 35.0096 159.351 33.6045C160.149 32.1819 161.233 31.0804 162.604 30.2997C163.974 29.5017 165.501 29.1027 167.183 29.1027C168.883 29.1027 170.419 29.5017 171.789 30.2997C173.16 31.0804 174.235 32.1819 175.016 33.6045C175.796 35.0096 176.187 36.6056 176.187 38.3924C176.187 40.1793 175.796 41.7839 175.016 43.2064C174.235 44.6116 173.16 45.7132 171.789 46.5112C170.419 47.2918 168.883 47.6822 167.183 47.6822ZM167.183 46.0948C168.536 46.0948 169.751 45.7826 170.826 45.1581C171.902 44.5335 172.752 43.6401 173.376 42.4778C174.001 41.2982 174.313 39.9364 174.313 38.3924C174.313 36.8485 174.001 35.4954 173.376 34.3331C172.752 33.1708 171.902 32.2774 170.826 31.6528C169.751 31.0283 168.536 30.7161 167.183 30.7161C165.83 30.7161 164.616 31.0283 163.54 31.6528C162.465 32.2774 161.615 33.1708 160.99 34.3331C160.366 35.4954 160.053 36.8485 160.053 38.3924C160.053 39.9364 160.366 41.2982 160.99 42.4778C161.615 43.6401 162.465 44.5335 163.54 45.1581C164.616 45.7826 165.83 46.0948 167.183 46.0948ZM179.182 29.3109V40.7604C179.182 42.5646 179.607 43.9003 180.457 44.7677C181.324 45.6351 182.504 46.0688 183.996 46.0688C185.487 46.0688 186.65 45.6438 187.482 44.7938C188.332 43.9264 188.757 42.5819 188.757 40.7604V29.3109H190.579V40.7344C190.579 43.0416 189.963 44.7764 188.731 45.9387C187.517 47.101 185.93 47.6822 183.97 47.6822C182.009 47.6822 180.413 47.101 179.182 45.9387C177.967 44.7764 177.36 43.0416 177.36 40.7344V29.3109H179.182ZM204.192 34.5412C204.192 36.1025 203.68 37.3602 202.656 38.3144C201.633 39.2685 200.098 39.7456 198.051 39.7456H194.382V47.5H192.56V29.3109H198.051C200.08 29.3109 201.607 29.788 202.63 30.7421C203.671 31.6962 204.192 32.9626 204.192 34.5412ZM198.051 38.1843C200.896 38.1843 202.318 36.9699 202.318 34.5412C202.318 33.3269 201.98 32.4075 201.303 31.7829C200.627 31.1584 199.543 30.8462 198.051 30.8462H194.382V38.1843H198.051Z" fill="white"/>
</svg>
