<?xml version="1.0" encoding="UTF-8"?>
<svg id="Layer_1" xmlns="http://www.w3.org/2000/svg" version="1.1" viewBox="0 0 24 24">
  <!-- Generator: Adobe Illustrator 29.7.0, SVG Export Plug-In . SVG Version: 2.1.1 Build 138)  -->
  <path d="M20.6,18.6c-3.7,4.1-10,4.5-14.1.8-4.1-3.7-4.5-10-.8-14.1,1.7-1.9,4.1-3.1,6.7-3.3.4,0,.8.2,1,.6.2.4.1.8-.1,1.1-2.9,3.3-2.6,8.4.7,11.3,1.5,1.3,3.4,2,5.3,2,.2,0,.4,0,.6,0,.4,0,.8.2,1,.6.2.4.1.8-.1,1.1ZM17,6.6l-.6,1.2c0,.1-.2.2-.3.2l-1.3.2c-.4,0-.5.5-.2.7l1,.9c.1,0,.1.2.1.4l-.2,1.3c0,.4.3.6.6.5l1.2-.6c.1,0,.3,0,.4,0l1.2.6c.3.2.7-.1.6-.5l-.2-1.3c0-.1,0-.3.1-.4l1-.9c.3-.2.1-.7-.2-.7l-1.3-.2c-.1,0-.3-.1-.3-.2l-.6-1.2c-.2-.3-.6-.3-.8,0Z"/>
</svg>