<?xml version="1.0" encoding="UTF-8"?>
<svg id="Layer_1" xmlns="http://www.w3.org/2000/svg" version="1.1" viewBox="0 0 24 24">
  <!-- Generator: Adobe Illustrator 29.7.0, SVG Export Plug-In . SVG Version: 2.1.1 Build 138)  -->
  <defs>
    <style>
      .st0 {
        fill: #fff;
      }
    </style>
  </defs>
  <circle class="st0" cx="12" cy="12" r="5.2"/>
  <path class="st0" d="M12,4.9c.6,0,1.1-.5,1.1-1.1v-1.5c0-.6-.5-1.1-1.1-1.1s-1.1.5-1.1,1.1v1.5c0,.6.5,1.1,1.1,1.1Z"/>
  <path class="st0" d="M5.5,7c.2.2.5.3.8.3s.6-.1.8-.3c.2-.2.3-.5.3-.8s-.1-.6-.3-.8l-1-1c-.4-.4-1.1-.4-1.5,0-.4.4-.4,1.1,0,1.5l1,1Z"/>
  <path class="st0" d="M4.9,12c0-.6-.5-1.1-1.1-1.1h-1.5c-.6,0-1.1.5-1.1,1.1s.5,1.1,1.1,1.1h1.5c.6,0,1.1-.5,1.1-1.1Z"/>
  <path class="st0" d="M6.2,16.7c-.3,0-.6.1-.8.3l-1,1c-.4.4-.4,1.1,0,1.5.2.2.5.3.8.3s.5-.1.8-.3l1-1c.2-.2.3-.5.3-.8s-.1-.6-.3-.8c-.2-.2-.5-.3-.8-.3Z"/>
  <path class="st0" d="M12,19.1c-.6,0-1.1.5-1.1,1.1v1.5c0,.6.5,1.1,1.1,1.1s1.1-.5,1.1-1.1v-1.5c0-.6-.5-1.1-1.1-1.1Z"/>
  <path class="st0" d="M18.5,17c-.4-.4-1.1-.4-1.5,0s-.4,1.1,0,1.5l1,1c.2.2.5.3.8.3s.5-.1.8-.3c.4-.4.4-1.1,0-1.5l-1-1Z"/>
  <path class="st0" d="M21.6,10.9h-1.5c-.6,0-1.1.5-1.1,1.1s.5,1.1,1.1,1.1h1.5c.6,0,1.1-.5,1.1-1.1s-.5-1.1-1.1-1.1Z"/>
  <path class="st0" d="M17.8,7.3c.3,0,.6-.1.8-.3l1-1c.4-.4.4-1.1,0-1.5-.4-.4-1.1-.4-1.5,0l-1,1c-.2.2-.3.5-.3.8s.1.6.3.8c.2.2.5.3.8.3Z"/>
</svg>